<svg width="28" height="30" viewBox="0 0 28 30" fill="none" xmlns="http://www.w3.org/2000/svg">
<path d="M13.4071 0.000662634C12.5123 0.00575796 11.6149 0.0592552 10.7098 0.168798C8.97918 0.38024 7.26391 0.731795 5.61788 1.48331C3.00011 2.67808 1.14383 4.70589 0.605407 7.65335C0.377218 8.89653 0.192616 10.1575 0.0874951 11.4262C-0.115055 13.8896 0.0105771 16.3607 0.713092 18.7885C1.2669 20.7016 2.28734 22.4212 4.07439 23.537C4.83075 24.0083 5.82812 24.2376 6.34859 24.477C6.49474 24.5458 6.53063 24.5866 6.53832 24.5968C6.54602 24.6044 6.56653 24.6222 6.56396 24.7751C6.54602 26.3342 6.56396 29.3504 6.56396 29.3504L6.56653 30H7.73824L7.92797 29.8166C7.92797 29.8166 10.9047 26.971 11.9815 25.7992C12.1764 25.5903 12.2764 25.4731 12.2969 25.4604C12.3148 25.4476 12.2841 25.44 12.4841 25.4349C13.8968 25.4069 15.3069 25.3534 16.7171 25.2769C18.5759 25.175 20.4707 24.9993 22.2936 24.2427C23.8807 23.5829 25.2062 22.5053 26.0087 20.8901C26.8292 19.2343 27.2676 17.479 27.4317 15.6627C27.7035 12.6388 27.6086 9.60983 26.7677 6.62416C26.2728 4.87403 25.278 3.39393 23.7525 2.34946C21.927 1.10118 19.8682 0.632442 17.8529 0.334385C16.6761 0.161155 15.4915 0.0465179 14.3019 0.0108526C14.0045 0.00320997 13.7071 -0.0018847 13.4071 0.000662634ZM14.266 1.31517C15.3967 1.34574 16.5274 1.45528 17.6606 1.62342C19.6041 1.91129 21.4373 2.34946 23.009 3.4245C24.2832 4.29574 25.078 5.47269 25.5037 6.97316C26.2882 9.76522 26.3882 12.6261 26.1241 15.548C25.9729 17.2319 25.5703 18.819 24.8293 20.3144C24.1755 21.634 23.1551 22.4721 21.786 23.0402C20.1963 23.7 18.4683 23.8758 16.6479 23.9752C15.2531 24.0516 13.8558 24.1025 12.4584 24.1306C12.1072 24.1382 11.7636 24.2299 11.52 24.4082C11.2765 24.5866 11.1662 24.7522 11.0149 24.9152C10.2458 25.7508 8.71253 27.2207 7.87669 28.0257C7.87156 27.0525 7.86387 25.8756 7.87669 24.7904C7.88182 24.4566 7.8049 24.1153 7.61261 23.8452C7.42031 23.5752 7.15623 23.4122 6.9024 23.295C6.16143 22.9536 5.19226 22.6938 4.77178 22.4314C3.30265 21.5143 2.46938 20.1386 1.97454 18.4267C1.32587 16.1875 1.2028 13.882 1.3951 11.5357C1.49765 10.318 1.67456 9.09778 1.89762 7.88772C2.36426 5.33767 3.83082 3.73275 6.16399 2.66789C7.63825 1.99535 9.21249 1.66418 10.8714 1.46293C12.002 1.32536 13.1327 1.28205 14.266 1.31517ZM14.5429 4.56578C14.0019 4.56578 13.4763 4.62692 12.9661 4.73901C12.6148 4.82053 12.3918 5.16954 12.4712 5.52109C12.5507 5.87265 12.9045 6.09173 13.2584 6.01276C13.6712 5.9185 14.1019 5.8701 14.5429 5.8701C17.7478 5.8701 20.3322 8.43798 20.3322 11.6198C20.3322 12.0605 20.2835 12.4885 20.1886 12.9012C20.1092 13.2502 20.3297 13.6018 20.6835 13.6807C21.0373 13.7597 21.3886 13.5381 21.468 13.1865C21.5834 12.6821 21.645 12.1599 21.645 11.6198C21.645 7.73232 18.458 4.56578 14.5429 4.56578ZM7.99463 5.87265C7.88695 5.86755 7.7767 5.87519 7.66132 5.90067C6.4691 6.16306 5.28457 7.02157 5.25124 8.55516C5.28457 8.76915 5.282 8.99843 5.36148 9.19204C5.7512 10.1397 6.08964 11.1179 6.57678 12.0147C8.94841 16.3709 12.5353 19.3999 17.1068 21.3232C17.6529 21.5525 18.217 21.6009 18.7682 21.3716C19.5272 21.0583 20.1707 20.5743 20.5989 19.8788C21.186 18.9235 21.1937 18.2611 20.2271 17.5555C19.5938 17.0918 18.9708 16.6154 18.3298 16.162C17.3529 15.4742 16.2966 15.3544 15.5685 16.5619C15.53 16.6231 15.4736 16.674 15.4249 16.725C15.0505 17.1199 14.5916 17.2167 14.1045 17.018C12.2559 16.2613 10.8278 15.0411 9.96629 13.2247C9.45863 12.1573 9.59708 11.6223 10.5457 10.9116C10.6406 10.8428 10.7303 10.7689 10.8175 10.69C11.2329 10.3129 11.3431 9.86458 11.097 9.35762C10.5406 8.20106 9.79963 7.16932 8.86124 6.28025C8.60741 6.04078 8.31769 5.89048 7.99463 5.87265ZM14.5326 6.52226C14.2429 6.52226 13.9558 6.54518 13.6737 6.59359C13.4353 6.62416 13.2327 6.7821 13.1456 7.00373C13.0584 7.22791 13.102 7.48012 13.2558 7.66354C13.4122 7.84441 13.6583 7.92848 13.8942 7.87753C14.0993 7.84441 14.3147 7.82658 14.5326 7.82658C16.6658 7.82658 18.3785 9.52831 18.3785 11.6478C18.3785 11.8644 18.3606 12.0784 18.3272 12.2822C18.276 12.5165 18.3606 12.7611 18.5426 12.9165C18.7272 13.0693 18.981 13.1126 19.2067 13.026C19.4297 12.9394 19.5887 12.7382 19.6195 12.5012C19.6682 12.221 19.6912 11.9357 19.6912 11.6478C19.6912 8.8252 17.3735 6.52226 14.5326 6.52226ZM14.4403 8.47874C14.2045 8.47619 13.984 8.59847 13.8635 8.80227C13.7455 9.00607 13.7455 9.25572 13.8635 9.45952C13.984 9.66332 14.2045 9.7856 14.4403 9.78306C15.5351 9.78306 16.4094 10.6518 16.4094 11.7395C16.4069 11.9739 16.5299 12.193 16.735 12.3127C16.9402 12.4299 17.1914 12.4299 17.3965 12.3127C17.6016 12.193 17.7247 11.9739 17.7222 11.7395C17.7222 9.9461 16.2453 8.47874 14.4403 8.47874Z" fill="white"/>
</svg>
